G04 #@! TF.FileFunction,Copper,L2,Bot,Signal*
%FSLAX46Y46*%
G04 Gerber Fmt 4.6, Leading zero omitted, Abs format (unit mm)*
G04 Created by KiCad (PCBNEW 4.0.4-stable) date Thu Oct  6 00:02:17 2016*
%MOMM*%
%LPD*%
G01*
G04 APERTURE LIST*
%ADD10C,0.100000*%
%ADD11R,3.000000X3.000000*%
%ADD12C,3.000000*%
%ADD13C,2.499360*%
%ADD14C,0.600000*%
%ADD15C,0.170000*%
G04 APERTURE END LIST*
D10*
D11*
X162560000Y-76835000D03*
D12*
X162560000Y-71755000D03*
D11*
X130810000Y-71755000D03*
D12*
X130810000Y-76835000D03*
D13*
X152400000Y-80010000D03*
X147320000Y-82550000D03*
X139700000Y-80010000D03*
D14*
X141605000Y-75565000D03*
X140970000Y-75565000D03*
X140335000Y-75565000D03*
X139700000Y-75565000D03*
X139065000Y-75565000D03*
X138430000Y-75565000D03*
X137795000Y-75565000D03*
X137160000Y-75565000D03*
X136525000Y-75565000D03*
X136525000Y-74930000D03*
X136525000Y-74295000D03*
X136525000Y-73660000D03*
X136525000Y-73025000D03*
X136525000Y-72390000D03*
X136525000Y-71755000D03*
X136525000Y-71120000D03*
X136525000Y-70485000D03*
X136525000Y-69850000D03*
X136525000Y-69215000D03*
X136525000Y-68580000D03*
X136525000Y-67945000D03*
X142240000Y-75565000D03*
X142875000Y-75565000D03*
X137160000Y-67945000D03*
X140970000Y-67945000D03*
X140335000Y-67945000D03*
X139700000Y-67945000D03*
X139065000Y-67945000D03*
X138430000Y-67945000D03*
X137795000Y-67945000D03*
X141605000Y-67945000D03*
X142240000Y-67945000D03*
X142875000Y-67945000D03*
X150495000Y-69215000D03*
X149860000Y-69215000D03*
X149860000Y-74295000D03*
X151130000Y-74930000D03*
X151130000Y-74295000D03*
X150495000Y-74295000D03*
X149860000Y-74930000D03*
X150495000Y-74930000D03*
X151130000Y-75565000D03*
X150495000Y-75565000D03*
X149860000Y-75565000D03*
X149225000Y-75565000D03*
X148590000Y-75565000D03*
X147320000Y-75565000D03*
X147955000Y-75565000D03*
X151130000Y-69215000D03*
X151130000Y-68580000D03*
X150495000Y-68580000D03*
X149860000Y-68580000D03*
X151130000Y-67945000D03*
X147320000Y-67945000D03*
X147955000Y-67945000D03*
X148590000Y-67945000D03*
X149225000Y-67945000D03*
X149860000Y-67945000D03*
X150495000Y-67945000D03*
X146685000Y-75565000D03*
X146050000Y-75565000D03*
X146685000Y-67945000D03*
X146050000Y-67945000D03*
D15*
G36*
X166040000Y-73575000D02*
X151765000Y-73575000D01*
X151731930Y-73581697D01*
X151704071Y-73600732D01*
X151685813Y-73629106D01*
X151680000Y-73660000D01*
X151680000Y-76115000D01*
X144230000Y-76115000D01*
X144230000Y-73384262D01*
X161991398Y-73384262D01*
X162211836Y-73510183D01*
X162908164Y-73510183D01*
X163128602Y-73384262D01*
X162560000Y-72815660D01*
X161991398Y-73384262D01*
X144230000Y-73384262D01*
X144230000Y-71406836D01*
X160804817Y-71406836D01*
X160804817Y-72103164D01*
X160930738Y-72323602D01*
X161499340Y-71755000D01*
X163620660Y-71755000D01*
X164189262Y-72323602D01*
X164315183Y-72103164D01*
X164315183Y-71406836D01*
X164189262Y-71186398D01*
X163620660Y-71755000D01*
X161499340Y-71755000D01*
X160930738Y-71186398D01*
X160804817Y-71406836D01*
X144230000Y-71406836D01*
X144230000Y-70125738D01*
X161991398Y-70125738D01*
X162560000Y-70694340D01*
X163128602Y-70125738D01*
X162908164Y-69999817D01*
X162211836Y-69999817D01*
X161991398Y-70125738D01*
X144230000Y-70125738D01*
X144230000Y-65100000D01*
X166040000Y-65100000D01*
X166040000Y-73575000D01*
X166040000Y-73575000D01*
G37*
X166040000Y-73575000D02*
X151765000Y-73575000D01*
X151731930Y-73581697D01*
X151704071Y-73600732D01*
X151685813Y-73629106D01*
X151680000Y-73660000D01*
X151680000Y-76115000D01*
X144230000Y-76115000D01*
X144230000Y-73384262D01*
X161991398Y-73384262D01*
X162211836Y-73510183D01*
X162908164Y-73510183D01*
X163128602Y-73384262D01*
X162560000Y-72815660D01*
X161991398Y-73384262D01*
X144230000Y-73384262D01*
X144230000Y-71406836D01*
X160804817Y-71406836D01*
X160804817Y-72103164D01*
X160930738Y-72323602D01*
X161499340Y-71755000D01*
X163620660Y-71755000D01*
X164189262Y-72323602D01*
X164315183Y-72103164D01*
X164315183Y-71406836D01*
X164189262Y-71186398D01*
X163620660Y-71755000D01*
X161499340Y-71755000D01*
X160930738Y-71186398D01*
X160804817Y-71406836D01*
X144230000Y-71406836D01*
X144230000Y-70125738D01*
X161991398Y-70125738D01*
X162560000Y-70694340D01*
X163128602Y-70125738D01*
X162908164Y-69999817D01*
X162211836Y-69999817D01*
X161991398Y-70125738D01*
X144230000Y-70125738D01*
X144230000Y-65100000D01*
X166040000Y-65100000D01*
X166040000Y-73575000D01*
G36*
X143425000Y-76115000D02*
X135975000Y-76115000D01*
X135975000Y-73660000D01*
X135968303Y-73626930D01*
X135949268Y-73599071D01*
X135920894Y-73580813D01*
X135890000Y-73575000D01*
X127330000Y-73575000D01*
X127330000Y-72568750D01*
X129055000Y-72568750D01*
X129055000Y-73305723D01*
X129093822Y-73399446D01*
X129165554Y-73471179D01*
X129259278Y-73510000D01*
X129996250Y-73510000D01*
X130060000Y-73446250D01*
X130060000Y-72505000D01*
X131560000Y-72505000D01*
X131560000Y-73446250D01*
X131623750Y-73510000D01*
X132360722Y-73510000D01*
X132454446Y-73471179D01*
X132526178Y-73399446D01*
X132565000Y-73305723D01*
X132565000Y-72568750D01*
X132501250Y-72505000D01*
X131560000Y-72505000D01*
X130060000Y-72505000D01*
X129118750Y-72505000D01*
X129055000Y-72568750D01*
X127330000Y-72568750D01*
X127330000Y-70204277D01*
X129055000Y-70204277D01*
X129055000Y-70941250D01*
X129118750Y-71005000D01*
X130060000Y-71005000D01*
X130060000Y-70063750D01*
X131560000Y-70063750D01*
X131560000Y-71005000D01*
X132501250Y-71005000D01*
X132565000Y-70941250D01*
X132565000Y-70204277D01*
X132526178Y-70110554D01*
X132454446Y-70038821D01*
X132360722Y-70000000D01*
X131623750Y-70000000D01*
X131560000Y-70063750D01*
X130060000Y-70063750D01*
X129996250Y-70000000D01*
X129259278Y-70000000D01*
X129165554Y-70038821D01*
X129093822Y-70110554D01*
X129055000Y-70204277D01*
X127330000Y-70204277D01*
X127330000Y-65100000D01*
X143425000Y-65100000D01*
X143425000Y-76115000D01*
X143425000Y-76115000D01*
G37*
X143425000Y-76115000D02*
X135975000Y-76115000D01*
X135975000Y-73660000D01*
X135968303Y-73626930D01*
X135949268Y-73599071D01*
X135920894Y-73580813D01*
X135890000Y-73575000D01*
X127330000Y-73575000D01*
X127330000Y-72568750D01*
X129055000Y-72568750D01*
X129055000Y-73305723D01*
X129093822Y-73399446D01*
X129165554Y-73471179D01*
X129259278Y-73510000D01*
X129996250Y-73510000D01*
X130060000Y-73446250D01*
X130060000Y-72505000D01*
X131560000Y-72505000D01*
X131560000Y-73446250D01*
X131623750Y-73510000D01*
X132360722Y-73510000D01*
X132454446Y-73471179D01*
X132526178Y-73399446D01*
X132565000Y-73305723D01*
X132565000Y-72568750D01*
X132501250Y-72505000D01*
X131560000Y-72505000D01*
X130060000Y-72505000D01*
X129118750Y-72505000D01*
X129055000Y-72568750D01*
X127330000Y-72568750D01*
X127330000Y-70204277D01*
X129055000Y-70204277D01*
X129055000Y-70941250D01*
X129118750Y-71005000D01*
X130060000Y-71005000D01*
X130060000Y-70063750D01*
X131560000Y-70063750D01*
X131560000Y-71005000D01*
X132501250Y-71005000D01*
X132565000Y-70941250D01*
X132565000Y-70204277D01*
X132526178Y-70110554D01*
X132454446Y-70038821D01*
X132360722Y-70000000D01*
X131623750Y-70000000D01*
X131560000Y-70063750D01*
X130060000Y-70063750D01*
X129996250Y-70000000D01*
X129259278Y-70000000D01*
X129165554Y-70038821D01*
X129093822Y-70110554D01*
X129055000Y-70204277D01*
X127330000Y-70204277D01*
X127330000Y-65100000D01*
X143425000Y-65100000D01*
X143425000Y-76115000D01*
G36*
X135170000Y-76835000D02*
X135176697Y-76868070D01*
X135195732Y-76895929D01*
X135224106Y-76914187D01*
X135255000Y-76920000D01*
X152400000Y-76920000D01*
X152433070Y-76913303D01*
X152460929Y-76894268D01*
X152479187Y-76865894D01*
X152485000Y-76835000D01*
X152485000Y-75284277D01*
X160805000Y-75284277D01*
X160805000Y-76021250D01*
X160868750Y-76085000D01*
X161810000Y-76085000D01*
X161810000Y-75143750D01*
X163310000Y-75143750D01*
X163310000Y-76085000D01*
X164251250Y-76085000D01*
X164315000Y-76021250D01*
X164315000Y-75284277D01*
X164276178Y-75190554D01*
X164204446Y-75118821D01*
X164110722Y-75080000D01*
X163373750Y-75080000D01*
X163310000Y-75143750D01*
X161810000Y-75143750D01*
X161746250Y-75080000D01*
X161009278Y-75080000D01*
X160915554Y-75118821D01*
X160843822Y-75190554D01*
X160805000Y-75284277D01*
X152485000Y-75284277D01*
X152485000Y-74380000D01*
X166040000Y-74380000D01*
X166040000Y-84125000D01*
X127330000Y-84125000D01*
X127330000Y-82853927D01*
X145785054Y-82853927D01*
X146018203Y-83418191D01*
X146449539Y-83850280D01*
X147013394Y-84084413D01*
X147623927Y-84084946D01*
X148188191Y-83851797D01*
X148620280Y-83420461D01*
X148854413Y-82856606D01*
X148854946Y-82246073D01*
X148621797Y-81681809D01*
X148333510Y-81393018D01*
X151900639Y-81393018D01*
X152081932Y-81510824D01*
X152680484Y-81518300D01*
X152718068Y-81510824D01*
X152899361Y-81393018D01*
X152400000Y-80893657D01*
X151900639Y-81393018D01*
X148333510Y-81393018D01*
X148190461Y-81249720D01*
X147626606Y-81015587D01*
X147016073Y-81015054D01*
X146451809Y-81248203D01*
X146019720Y-81679539D01*
X145785587Y-82243394D01*
X145785054Y-82853927D01*
X127330000Y-82853927D01*
X127330000Y-80313927D01*
X138165054Y-80313927D01*
X138398203Y-80878191D01*
X138829539Y-81310280D01*
X139393394Y-81544413D01*
X140003927Y-81544946D01*
X140568191Y-81311797D01*
X141000280Y-80880461D01*
X141234413Y-80316606D01*
X141234435Y-80290484D01*
X150891700Y-80290484D01*
X150899176Y-80328068D01*
X151016982Y-80509361D01*
X151516343Y-80010000D01*
X153283657Y-80010000D01*
X153783018Y-80509361D01*
X153900824Y-80328068D01*
X153908300Y-79729516D01*
X153900824Y-79691932D01*
X153783018Y-79510639D01*
X153283657Y-80010000D01*
X151516343Y-80010000D01*
X151016982Y-79510639D01*
X150899176Y-79691932D01*
X150891700Y-80290484D01*
X141234435Y-80290484D01*
X141234946Y-79706073D01*
X141001797Y-79141809D01*
X140570461Y-78709720D01*
X140371206Y-78626982D01*
X151900639Y-78626982D01*
X152400000Y-79126343D01*
X152899361Y-78626982D01*
X152718068Y-78509176D01*
X152119516Y-78501700D01*
X152081932Y-78509176D01*
X151900639Y-78626982D01*
X140371206Y-78626982D01*
X140006606Y-78475587D01*
X139396073Y-78475054D01*
X138831809Y-78708203D01*
X138399720Y-79139539D01*
X138165587Y-79703394D01*
X138165054Y-80313927D01*
X127330000Y-80313927D01*
X127330000Y-78464262D01*
X130241398Y-78464262D01*
X130461836Y-78590183D01*
X131158164Y-78590183D01*
X131378602Y-78464262D01*
X130810000Y-77895660D01*
X130241398Y-78464262D01*
X127330000Y-78464262D01*
X127330000Y-77648750D01*
X160805000Y-77648750D01*
X160805000Y-78385723D01*
X160843822Y-78479446D01*
X160915554Y-78551179D01*
X161009278Y-78590000D01*
X161746250Y-78590000D01*
X161810000Y-78526250D01*
X161810000Y-77585000D01*
X163310000Y-77585000D01*
X163310000Y-78526250D01*
X163373750Y-78590000D01*
X164110722Y-78590000D01*
X164204446Y-78551179D01*
X164276178Y-78479446D01*
X164315000Y-78385723D01*
X164315000Y-77648750D01*
X164251250Y-77585000D01*
X163310000Y-77585000D01*
X161810000Y-77585000D01*
X160868750Y-77585000D01*
X160805000Y-77648750D01*
X127330000Y-77648750D01*
X127330000Y-76486836D01*
X129054817Y-76486836D01*
X129054817Y-77183164D01*
X129180738Y-77403602D01*
X129749340Y-76835000D01*
X131870660Y-76835000D01*
X132439262Y-77403602D01*
X132565183Y-77183164D01*
X132565183Y-76486836D01*
X132439262Y-76266398D01*
X131870660Y-76835000D01*
X129749340Y-76835000D01*
X129180738Y-76266398D01*
X129054817Y-76486836D01*
X127330000Y-76486836D01*
X127330000Y-75205738D01*
X130241398Y-75205738D01*
X130810000Y-75774340D01*
X131378602Y-75205738D01*
X131158164Y-75079817D01*
X130461836Y-75079817D01*
X130241398Y-75205738D01*
X127330000Y-75205738D01*
X127330000Y-74380000D01*
X135170000Y-74380000D01*
X135170000Y-76835000D01*
X135170000Y-76835000D01*
G37*
X135170000Y-76835000D02*
X135176697Y-76868070D01*
X135195732Y-76895929D01*
X135224106Y-76914187D01*
X135255000Y-76920000D01*
X152400000Y-76920000D01*
X152433070Y-76913303D01*
X152460929Y-76894268D01*
X152479187Y-76865894D01*
X152485000Y-76835000D01*
X152485000Y-75284277D01*
X160805000Y-75284277D01*
X160805000Y-76021250D01*
X160868750Y-76085000D01*
X161810000Y-76085000D01*
X161810000Y-75143750D01*
X163310000Y-75143750D01*
X163310000Y-76085000D01*
X164251250Y-76085000D01*
X164315000Y-76021250D01*
X164315000Y-75284277D01*
X164276178Y-75190554D01*
X164204446Y-75118821D01*
X164110722Y-75080000D01*
X163373750Y-75080000D01*
X163310000Y-75143750D01*
X161810000Y-75143750D01*
X161746250Y-75080000D01*
X161009278Y-75080000D01*
X160915554Y-75118821D01*
X160843822Y-75190554D01*
X160805000Y-75284277D01*
X152485000Y-75284277D01*
X152485000Y-74380000D01*
X166040000Y-74380000D01*
X166040000Y-84125000D01*
X127330000Y-84125000D01*
X127330000Y-82853927D01*
X145785054Y-82853927D01*
X146018203Y-83418191D01*
X146449539Y-83850280D01*
X147013394Y-84084413D01*
X147623927Y-84084946D01*
X148188191Y-83851797D01*
X148620280Y-83420461D01*
X148854413Y-82856606D01*
X148854946Y-82246073D01*
X148621797Y-81681809D01*
X148333510Y-81393018D01*
X151900639Y-81393018D01*
X152081932Y-81510824D01*
X152680484Y-81518300D01*
X152718068Y-81510824D01*
X152899361Y-81393018D01*
X152400000Y-80893657D01*
X151900639Y-81393018D01*
X148333510Y-81393018D01*
X148190461Y-81249720D01*
X147626606Y-81015587D01*
X147016073Y-81015054D01*
X146451809Y-81248203D01*
X146019720Y-81679539D01*
X145785587Y-82243394D01*
X145785054Y-82853927D01*
X127330000Y-82853927D01*
X127330000Y-80313927D01*
X138165054Y-80313927D01*
X138398203Y-80878191D01*
X138829539Y-81310280D01*
X139393394Y-81544413D01*
X140003927Y-81544946D01*
X140568191Y-81311797D01*
X141000280Y-80880461D01*
X141234413Y-80316606D01*
X141234435Y-80290484D01*
X150891700Y-80290484D01*
X150899176Y-80328068D01*
X151016982Y-80509361D01*
X151516343Y-80010000D01*
X153283657Y-80010000D01*
X153783018Y-80509361D01*
X153900824Y-80328068D01*
X153908300Y-79729516D01*
X153900824Y-79691932D01*
X153783018Y-79510639D01*
X153283657Y-80010000D01*
X151516343Y-80010000D01*
X151016982Y-79510639D01*
X150899176Y-79691932D01*
X150891700Y-80290484D01*
X141234435Y-80290484D01*
X141234946Y-79706073D01*
X141001797Y-79141809D01*
X140570461Y-78709720D01*
X140371206Y-78626982D01*
X151900639Y-78626982D01*
X152400000Y-79126343D01*
X152899361Y-78626982D01*
X152718068Y-78509176D01*
X152119516Y-78501700D01*
X152081932Y-78509176D01*
X151900639Y-78626982D01*
X140371206Y-78626982D01*
X140006606Y-78475587D01*
X139396073Y-78475054D01*
X138831809Y-78708203D01*
X138399720Y-79139539D01*
X138165587Y-79703394D01*
X138165054Y-80313927D01*
X127330000Y-80313927D01*
X127330000Y-78464262D01*
X130241398Y-78464262D01*
X130461836Y-78590183D01*
X131158164Y-78590183D01*
X131378602Y-78464262D01*
X130810000Y-77895660D01*
X130241398Y-78464262D01*
X127330000Y-78464262D01*
X127330000Y-77648750D01*
X160805000Y-77648750D01*
X160805000Y-78385723D01*
X160843822Y-78479446D01*
X160915554Y-78551179D01*
X161009278Y-78590000D01*
X161746250Y-78590000D01*
X161810000Y-78526250D01*
X161810000Y-77585000D01*
X163310000Y-77585000D01*
X163310000Y-78526250D01*
X163373750Y-78590000D01*
X164110722Y-78590000D01*
X164204446Y-78551179D01*
X164276178Y-78479446D01*
X164315000Y-78385723D01*
X164315000Y-77648750D01*
X164251250Y-77585000D01*
X163310000Y-77585000D01*
X161810000Y-77585000D01*
X160868750Y-77585000D01*
X160805000Y-77648750D01*
X127330000Y-77648750D01*
X127330000Y-76486836D01*
X129054817Y-76486836D01*
X129054817Y-77183164D01*
X129180738Y-77403602D01*
X129749340Y-76835000D01*
X131870660Y-76835000D01*
X132439262Y-77403602D01*
X132565183Y-77183164D01*
X132565183Y-76486836D01*
X132439262Y-76266398D01*
X131870660Y-76835000D01*
X129749340Y-76835000D01*
X129180738Y-76266398D01*
X129054817Y-76486836D01*
X127330000Y-76486836D01*
X127330000Y-75205738D01*
X130241398Y-75205738D01*
X130810000Y-75774340D01*
X131378602Y-75205738D01*
X131158164Y-75079817D01*
X130461836Y-75079817D01*
X130241398Y-75205738D01*
X127330000Y-75205738D01*
X127330000Y-74380000D01*
X135170000Y-74380000D01*
X135170000Y-76835000D01*
M02*
