M48
;DRILL file {KiCad 4.0.4-stable} date Thu Oct  6 13:52:30 2016
;FORMAT={3:3/ absolute / metric / keep zeros}
FMAT,2
METRIC,TZ
T1C0.200
T2C0.813
T3C0.900
%
G90
G05
M71
T1
X136525Y-067945
X136525Y-068580
X136525Y-069215
X136525Y-069850
X136525Y-070485
X136525Y-071120
X136525Y-071755
X136525Y-072390
X136525Y-073025
X136525Y-073660
X136525Y-074295
X136525Y-074930
X136525Y-075565
X137160Y-067945
X137160Y-075565
X137795Y-067945
X137795Y-075565
X138430Y-067945
X138430Y-075565
X139065Y-067945
X139065Y-075565
X139700Y-067945
X139700Y-075565
X140335Y-067945
X140335Y-075565
X140970Y-067945
X140970Y-075565
X141605Y-067945
X141605Y-075565
X142240Y-067945
X142240Y-075565
X142875Y-067945
X142875Y-075565
X146050Y-067945
X146050Y-075565
X146685Y-067945
X146685Y-075565
X147320Y-067945
X147320Y-075565
X147955Y-067945
X147955Y-075565
X148590Y-067945
X148590Y-075565
X149225Y-067945
X149225Y-075565
X149860Y-067945
X149860Y-068580
X149860Y-069215
X149860Y-074295
X149860Y-074930
X149860Y-075565
X150495Y-067945
X150495Y-068580
X150495Y-069215
X150495Y-074295
X150495Y-074930
X150495Y-075565
X151130Y-067945
X151130Y-068580
X151130Y-069215
X151130Y-074295
X151130Y-074930
X151130Y-075565
T2
X139700Y-080010
X147320Y-082550
X152400Y-080010
T3
X130810Y-071755
X130810Y-076835
X162560Y-071755
X162560Y-076835
T0
M30
