M48
;DRILL file {KiCad 4.0.4-stable} date Thu Oct  6 00:02:24 2016
;FORMAT={-:-/ absolute / metric / decimal}
FMAT,2
METRIC,TZ
T1C0.200
T2C0.813
T3C0.900
%
G90
G05
M71
T1
X136.525Y-67.945
X136.525Y-68.58
X136.525Y-69.215
X136.525Y-69.85
X136.525Y-70.485
X136.525Y-71.12
X136.525Y-71.755
X136.525Y-72.39
X136.525Y-73.025
X136.525Y-73.66
X136.525Y-74.295
X136.525Y-74.93
X136.525Y-75.565
X137.16Y-67.945
X137.16Y-75.565
X137.795Y-67.945
X137.795Y-75.565
X138.43Y-67.945
X138.43Y-75.565
X139.065Y-67.945
X139.065Y-75.565
X139.7Y-67.945
X139.7Y-75.565
X140.335Y-67.945
X140.335Y-75.565
X140.97Y-67.945
X140.97Y-75.565
X141.605Y-67.945
X141.605Y-75.565
X142.24Y-67.945
X142.24Y-75.565
X142.875Y-67.945
X142.875Y-75.565
X146.05Y-67.945
X146.05Y-75.565
X146.685Y-67.945
X146.685Y-75.565
X147.32Y-67.945
X147.32Y-75.565
X147.955Y-67.945
X147.955Y-75.565
X148.59Y-67.945
X148.59Y-75.565
X149.225Y-67.945
X149.225Y-75.565
X149.86Y-67.945
X149.86Y-68.58
X149.86Y-69.215
X149.86Y-74.295
X149.86Y-74.93
X149.86Y-75.565
X150.495Y-67.945
X150.495Y-68.58
X150.495Y-69.215
X150.495Y-74.295
X150.495Y-74.93
X150.495Y-75.565
X151.13Y-67.945
X151.13Y-68.58
X151.13Y-69.215
X151.13Y-74.295
X151.13Y-74.93
X151.13Y-75.565
T2
X139.7Y-80.01
X147.32Y-82.55
X152.4Y-80.01
T3
X130.81Y-71.755
X130.81Y-76.835
X162.56Y-71.755
X162.56Y-76.835
T0
M30
