G04 #@! TF.FileFunction,Legend,Top*
%FSLAX46Y46*%
G04 Gerber Fmt 4.6, Leading zero omitted, Abs format (unit mm)*
G04 Created by KiCad (PCBNEW 4.0.4-stable) date Thu Oct  6 00:02:17 2016*
%MOMM*%
%LPD*%
G01*
G04 APERTURE LIST*
%ADD10C,0.100000*%
%ADD11C,0.300000*%
%ADD12C,0.381000*%
%ADD13C,0.304800*%
%ADD14C,0.127000*%
%ADD15C,0.150000*%
%ADD16C,0.114300*%
G04 APERTURE END LIST*
D10*
D11*
X161988572Y-67417143D02*
X163131429Y-67417143D01*
X162560000Y-67988571D02*
X162560000Y-66845714D01*
X130238572Y-67417143D02*
X131381429Y-67417143D01*
X130810000Y-67988571D02*
X130810000Y-66845714D01*
D12*
X137269220Y-68455540D02*
X137269220Y-75054460D01*
X137269220Y-75054460D02*
X144670780Y-75054460D01*
X144670780Y-75054460D02*
X144670780Y-68455540D01*
X144670780Y-68455540D02*
X137269220Y-68455540D01*
D13*
X165100000Y-69215000D02*
X165100000Y-79375000D01*
X166370000Y-69215000D02*
X158750000Y-69215000D01*
X158750000Y-69215000D02*
X158750000Y-79375000D01*
X158750000Y-79375000D02*
X166370000Y-79375000D01*
X166370000Y-79375000D02*
X166370000Y-69215000D01*
D14*
X155067000Y-65405000D02*
X157353000Y-65405000D01*
X157353000Y-65405000D02*
X157353000Y-66675000D01*
X157353000Y-66675000D02*
X155067000Y-66675000D01*
X155067000Y-66675000D02*
X155067000Y-65405000D01*
X155067000Y-67310000D02*
X157353000Y-67310000D01*
X157353000Y-67310000D02*
X157353000Y-68580000D01*
X157353000Y-68580000D02*
X155067000Y-68580000D01*
X155067000Y-68580000D02*
X155067000Y-67310000D01*
D13*
X128270000Y-79375000D02*
X128270000Y-69215000D01*
X127000000Y-79375000D02*
X134620000Y-79375000D01*
X134620000Y-79375000D02*
X134620000Y-69215000D01*
X134620000Y-69215000D02*
X127000000Y-69215000D01*
X127000000Y-69215000D02*
X127000000Y-79375000D01*
D14*
X151892000Y-65405000D02*
X154178000Y-65405000D01*
X154178000Y-65405000D02*
X154178000Y-66675000D01*
X154178000Y-66675000D02*
X151892000Y-66675000D01*
X151892000Y-66675000D02*
X151892000Y-65405000D01*
X151892000Y-67310000D02*
X154178000Y-67310000D01*
X154178000Y-67310000D02*
X154178000Y-68580000D01*
X154178000Y-68580000D02*
X151892000Y-68580000D01*
X151892000Y-68580000D02*
X151892000Y-67310000D01*
X153162000Y-74930000D02*
X155448000Y-74930000D01*
X155448000Y-74930000D02*
X155448000Y-76200000D01*
X155448000Y-76200000D02*
X153162000Y-76200000D01*
X153162000Y-76200000D02*
X153162000Y-74930000D01*
X155067000Y-69850000D02*
X157353000Y-69850000D01*
X157353000Y-69850000D02*
X157353000Y-71120000D01*
X157353000Y-71120000D02*
X155067000Y-71120000D01*
X155067000Y-71120000D02*
X155067000Y-69850000D01*
D12*
X154940000Y-81915000D02*
X155575000Y-81915000D01*
X155575000Y-81915000D02*
X155575000Y-80645000D01*
X155575000Y-80645000D02*
X154940000Y-80645000D01*
X154940000Y-80010000D02*
X137160000Y-80010000D01*
X137160000Y-80010000D02*
X137160000Y-82550000D01*
X137160000Y-82550000D02*
X154940000Y-82550000D01*
X154940000Y-82550000D02*
X154940000Y-80010000D01*
D14*
X156273500Y-72072500D02*
X156933900Y-72072500D01*
X156273500Y-73977500D02*
X156933900Y-73977500D01*
X154876500Y-73025000D02*
X154216100Y-73025000D01*
X154876500Y-74523600D02*
X154876500Y-71526400D01*
X154876500Y-71526400D02*
X156273500Y-71526400D01*
X156273500Y-71526400D02*
X156273500Y-74523600D01*
X156273500Y-74523600D02*
X154876500Y-74523600D01*
X153162000Y-76835000D02*
X155448000Y-76835000D01*
X155448000Y-76835000D02*
X155448000Y-78105000D01*
X155448000Y-78105000D02*
X153162000Y-78105000D01*
X153162000Y-78105000D02*
X153162000Y-76835000D01*
X136017000Y-76835000D02*
X138303000Y-76835000D01*
X138303000Y-76835000D02*
X138303000Y-78105000D01*
X138303000Y-78105000D02*
X136017000Y-78105000D01*
X136017000Y-78105000D02*
X136017000Y-76835000D01*
D15*
X140398571Y-66264286D02*
X140398571Y-66871429D01*
X140434286Y-66942857D01*
X140470000Y-66978571D01*
X140541429Y-67014286D01*
X140684286Y-67014286D01*
X140755714Y-66978571D01*
X140791429Y-66942857D01*
X140827143Y-66871429D01*
X140827143Y-66264286D01*
X141577143Y-67014286D02*
X141148571Y-67014286D01*
X141362857Y-67014286D02*
X141362857Y-66264286D01*
X141291428Y-66371429D01*
X141220000Y-66442857D01*
X141148571Y-66478571D01*
X162006428Y-68919286D02*
X162006428Y-68169286D01*
X162292143Y-68169286D01*
X162363571Y-68205000D01*
X162399286Y-68240714D01*
X162435000Y-68312143D01*
X162435000Y-68419286D01*
X162399286Y-68490714D01*
X162363571Y-68526429D01*
X162292143Y-68562143D01*
X162006428Y-68562143D01*
X162720714Y-68240714D02*
X162756428Y-68205000D01*
X162827857Y-68169286D01*
X163006428Y-68169286D01*
X163077857Y-68205000D01*
X163113571Y-68240714D01*
X163149286Y-68312143D01*
X163149286Y-68383571D01*
X163113571Y-68490714D01*
X162685000Y-68919286D01*
X163149286Y-68919286D01*
X157561428Y-66379286D02*
X157561428Y-65629286D01*
X157740000Y-65629286D01*
X157847143Y-65665000D01*
X157918571Y-65736429D01*
X157954286Y-65807857D01*
X157990000Y-65950714D01*
X157990000Y-66057857D01*
X157954286Y-66200714D01*
X157918571Y-66272143D01*
X157847143Y-66343571D01*
X157740000Y-66379286D01*
X157561428Y-66379286D01*
X158704286Y-66379286D02*
X158275714Y-66379286D01*
X158490000Y-66379286D02*
X158490000Y-65629286D01*
X158418571Y-65736429D01*
X158347143Y-65807857D01*
X158275714Y-65843571D01*
X157561428Y-68284286D02*
X157561428Y-67534286D01*
X157740000Y-67534286D01*
X157847143Y-67570000D01*
X157918571Y-67641429D01*
X157954286Y-67712857D01*
X157990000Y-67855714D01*
X157990000Y-67962857D01*
X157954286Y-68105714D01*
X157918571Y-68177143D01*
X157847143Y-68248571D01*
X157740000Y-68284286D01*
X157561428Y-68284286D01*
X158275714Y-67605714D02*
X158311428Y-67570000D01*
X158382857Y-67534286D01*
X158561428Y-67534286D01*
X158632857Y-67570000D01*
X158668571Y-67605714D01*
X158704286Y-67677143D01*
X158704286Y-67748571D01*
X158668571Y-67855714D01*
X158240000Y-68284286D01*
X158704286Y-68284286D01*
X130256428Y-68919286D02*
X130256428Y-68169286D01*
X130542143Y-68169286D01*
X130613571Y-68205000D01*
X130649286Y-68240714D01*
X130685000Y-68312143D01*
X130685000Y-68419286D01*
X130649286Y-68490714D01*
X130613571Y-68526429D01*
X130542143Y-68562143D01*
X130256428Y-68562143D01*
X131399286Y-68919286D02*
X130970714Y-68919286D01*
X131185000Y-68919286D02*
X131185000Y-68169286D01*
X131113571Y-68276429D01*
X131042143Y-68347857D01*
X130970714Y-68383571D01*
X151005000Y-66379286D02*
X150755000Y-66022143D01*
X150576428Y-66379286D02*
X150576428Y-65629286D01*
X150862143Y-65629286D01*
X150933571Y-65665000D01*
X150969286Y-65700714D01*
X151005000Y-65772143D01*
X151005000Y-65879286D01*
X150969286Y-65950714D01*
X150933571Y-65986429D01*
X150862143Y-66022143D01*
X150576428Y-66022143D01*
X151719286Y-66379286D02*
X151290714Y-66379286D01*
X151505000Y-66379286D02*
X151505000Y-65629286D01*
X151433571Y-65736429D01*
X151362143Y-65807857D01*
X151290714Y-65843571D01*
X152910000Y-69554286D02*
X152660000Y-69197143D01*
X152481428Y-69554286D02*
X152481428Y-68804286D01*
X152767143Y-68804286D01*
X152838571Y-68840000D01*
X152874286Y-68875714D01*
X152910000Y-68947143D01*
X152910000Y-69054286D01*
X152874286Y-69125714D01*
X152838571Y-69161429D01*
X152767143Y-69197143D01*
X152481428Y-69197143D01*
X153195714Y-68875714D02*
X153231428Y-68840000D01*
X153302857Y-68804286D01*
X153481428Y-68804286D01*
X153552857Y-68840000D01*
X153588571Y-68875714D01*
X153624286Y-68947143D01*
X153624286Y-69018571D01*
X153588571Y-69125714D01*
X153160000Y-69554286D01*
X153624286Y-69554286D01*
X156720000Y-75904286D02*
X156470000Y-75547143D01*
X156291428Y-75904286D02*
X156291428Y-75154286D01*
X156577143Y-75154286D01*
X156648571Y-75190000D01*
X156684286Y-75225714D01*
X156720000Y-75297143D01*
X156720000Y-75404286D01*
X156684286Y-75475714D01*
X156648571Y-75511429D01*
X156577143Y-75547143D01*
X156291428Y-75547143D01*
X157362857Y-75404286D02*
X157362857Y-75904286D01*
X157184286Y-75118571D02*
X157005714Y-75654286D01*
X157470000Y-75654286D01*
X154180000Y-70824286D02*
X153930000Y-70467143D01*
X153751428Y-70824286D02*
X153751428Y-70074286D01*
X154037143Y-70074286D01*
X154108571Y-70110000D01*
X154144286Y-70145714D01*
X154180000Y-70217143D01*
X154180000Y-70324286D01*
X154144286Y-70395714D01*
X154108571Y-70431429D01*
X154037143Y-70467143D01*
X153751428Y-70467143D01*
X154430000Y-70074286D02*
X154894286Y-70074286D01*
X154644286Y-70360000D01*
X154751428Y-70360000D01*
X154822857Y-70395714D01*
X154858571Y-70431429D01*
X154894286Y-70502857D01*
X154894286Y-70681429D01*
X154858571Y-70752857D01*
X154822857Y-70788571D01*
X154751428Y-70824286D01*
X154537143Y-70824286D01*
X154465714Y-70788571D01*
X154430000Y-70752857D01*
X135443572Y-81619286D02*
X135193572Y-81262143D01*
X135015000Y-81619286D02*
X135015000Y-80869286D01*
X135300715Y-80869286D01*
X135372143Y-80905000D01*
X135407858Y-80940714D01*
X135443572Y-81012143D01*
X135443572Y-81119286D01*
X135407858Y-81190714D01*
X135372143Y-81226429D01*
X135300715Y-81262143D01*
X135015000Y-81262143D01*
X135657858Y-80869286D02*
X135907858Y-81619286D01*
X136157858Y-80869286D01*
X136800715Y-81619286D02*
X136372143Y-81619286D01*
X136586429Y-81619286D02*
X136586429Y-80869286D01*
X136515000Y-80976429D01*
X136443572Y-81047857D01*
X136372143Y-81083571D01*
X153598571Y-72165714D02*
X153527143Y-72130000D01*
X153455714Y-72058571D01*
X153348571Y-71951429D01*
X153277143Y-71915714D01*
X153205714Y-71915714D01*
X153241429Y-72094286D02*
X153170000Y-72058571D01*
X153098571Y-71987143D01*
X153062857Y-71844286D01*
X153062857Y-71594286D01*
X153098571Y-71451429D01*
X153170000Y-71380000D01*
X153241429Y-71344286D01*
X153384286Y-71344286D01*
X153455714Y-71380000D01*
X153527143Y-71451429D01*
X153562857Y-71594286D01*
X153562857Y-71844286D01*
X153527143Y-71987143D01*
X153455714Y-72058571D01*
X153384286Y-72094286D01*
X153241429Y-72094286D01*
X154277143Y-72094286D02*
X153848571Y-72094286D01*
X154062857Y-72094286D02*
X154062857Y-71344286D01*
X153991428Y-71451429D01*
X153920000Y-71522857D01*
X153848571Y-71558571D01*
X156720000Y-77737857D02*
X156684286Y-77773571D01*
X156577143Y-77809286D01*
X156505714Y-77809286D01*
X156398571Y-77773571D01*
X156327143Y-77702143D01*
X156291428Y-77630714D01*
X156255714Y-77487857D01*
X156255714Y-77380714D01*
X156291428Y-77237857D01*
X156327143Y-77166429D01*
X156398571Y-77095000D01*
X156505714Y-77059286D01*
X156577143Y-77059286D01*
X156684286Y-77095000D01*
X156720000Y-77130714D01*
X157434286Y-77809286D02*
X157005714Y-77809286D01*
X157220000Y-77809286D02*
X157220000Y-77059286D01*
X157148571Y-77166429D01*
X157077143Y-77237857D01*
X157005714Y-77273571D01*
D16*
X137083800Y-77699810D02*
X136931400Y-77457905D01*
X136822543Y-77699810D02*
X136822543Y-77191810D01*
X136996715Y-77191810D01*
X137040257Y-77216000D01*
X137062029Y-77240190D01*
X137083800Y-77288571D01*
X137083800Y-77361143D01*
X137062029Y-77409524D01*
X137040257Y-77433714D01*
X136996715Y-77457905D01*
X136822543Y-77457905D01*
X137497457Y-77191810D02*
X137279743Y-77191810D01*
X137257972Y-77433714D01*
X137279743Y-77409524D01*
X137323286Y-77385333D01*
X137432143Y-77385333D01*
X137475686Y-77409524D01*
X137497457Y-77433714D01*
X137519229Y-77482095D01*
X137519229Y-77603048D01*
X137497457Y-77651429D01*
X137475686Y-77675619D01*
X137432143Y-77699810D01*
X137323286Y-77699810D01*
X137279743Y-77675619D01*
X137257972Y-77651429D01*
M02*
