%MOIN*%
%OFA0B0*%
%FSLAX44Y44*%
%IPPOS*%
%LPD*%
%ADD10C,0*%
D10*
X00012085Y00010844D02*
X00012085Y00010844D01*
X00009568Y00010844D01*
X00009568Y00010844D01*
X00009538Y00010843D01*
X00009508Y00010839D01*
X00009478Y00010834D01*
X00009449Y00010826D01*
X00009421Y00010816D01*
X00009394Y00010803D01*
X00009367Y00010789D01*
X00009342Y00010773D01*
X00009318Y00010755D01*
X00009296Y00010735D01*
X00009275Y00010713D01*
X00009255Y00010690D01*
X00009238Y00010665D01*
X00009223Y00010639D01*
X00009209Y00010612D01*
X00009198Y00010585D01*
X00009189Y00010556D01*
X00009182Y00010527D01*
X00009177Y00010497D01*
X00009175Y00010467D01*
X00009119Y00009162D01*
X00009119Y00009130D01*
X00009121Y00009099D01*
X00009126Y00009067D01*
X00009134Y00009036D01*
X00009144Y00009006D01*
X00009156Y00008977D01*
X00009171Y00008949D01*
X00009188Y00008922D01*
X00009207Y00008897D01*
X00009228Y00008873D01*
X00009251Y00008851D01*
X00009276Y00008831D01*
X00009302Y00008813D01*
X00009329Y00008797D01*
X00009358Y00008783D01*
X00009387Y00008772D01*
X00009418Y00008763D01*
X00009449Y00008757D01*
X00009481Y00008753D01*
X00009512Y00008751D01*
X00009512Y00008751D01*
X00012140Y00008751D01*
X00012172Y00008753D01*
X00012203Y00008757D01*
X00012235Y00008763D01*
X00012265Y00008772D01*
X00012295Y00008783D01*
X00012323Y00008797D01*
X00012351Y00008813D01*
X00012377Y00008831D01*
X00012402Y00008851D01*
X00012424Y00008873D01*
X00012445Y00008897D01*
X00012465Y00008922D01*
X00012481Y00008949D01*
X00012496Y00008977D01*
X00012509Y00009006D01*
X00012519Y00009036D01*
X00012526Y00009067D01*
X00012531Y00009099D01*
X00012534Y00009130D01*
X00012534Y00009162D01*
X00012478Y00010467D01*
X00012476Y00010497D01*
X00012471Y00010527D01*
X00012464Y00010556D01*
X00012455Y00010585D01*
X00012443Y00010612D01*
X00012430Y00010639D01*
X00012414Y00010665D01*
X00012397Y00010690D01*
X00012378Y00010713D01*
X00012357Y00010735D01*
X00012335Y00010755D01*
X00012311Y00010773D01*
X00012285Y00010789D01*
X00012259Y00010803D01*
X00012231Y00010816D01*
X00012203Y00010826D01*
X00012174Y00010834D01*
X00012145Y00010839D01*
X00012115Y00010843D01*
X00012085Y00010844D01*
X00015418Y00008751D02*
X00015418Y00008751D01*
X00015500Y00008751D01*
X00015500Y00001001D01*
X00000000Y00001001D01*
X00000000Y00008751D01*
X00000329Y00008751D01*
X00000361Y00008753D01*
X00000392Y00008757D01*
X00000424Y00008763D01*
X00000454Y00008772D01*
X00000484Y00008783D01*
X00000512Y00008797D01*
X00000540Y00008813D01*
X00000566Y00008831D01*
X00000591Y00008851D01*
X00000613Y00008873D01*
X00000634Y00008897D01*
X00000654Y00008922D01*
X00000670Y00008949D01*
X00000685Y00008977D01*
X00000698Y00009006D01*
X00000708Y00009036D01*
X00000715Y00009067D01*
X00000720Y00009099D01*
X00000723Y00009130D01*
X00000723Y00009162D01*
X00000667Y00010467D01*
X00000664Y00010497D01*
X00000660Y00010527D01*
X00000653Y00010556D01*
X00000644Y00010585D01*
X00000632Y00010612D01*
X00000619Y00010639D01*
X00000603Y00010665D01*
X00000586Y00010690D01*
X00000567Y00010713D01*
X00000546Y00010735D01*
X00000523Y00010755D01*
X00000500Y00010773D01*
X00000474Y00010789D01*
X00000448Y00010803D01*
X00000420Y00010816D01*
X00000392Y00010826D01*
X00000363Y00010834D01*
X00000334Y00010839D01*
X00000304Y00010843D01*
X00000274Y00010844D01*
X00000000Y00010844D01*
X00000000Y00018594D01*
X00015500Y00018594D01*
X00015500Y00010844D01*
X00015473Y00010844D01*
X00015473Y00010844D01*
X00015443Y00010843D01*
X00015414Y00010839D01*
X00015384Y00010834D01*
X00015355Y00010826D01*
X00015327Y00010816D01*
X00015299Y00010803D01*
X00015273Y00010789D01*
X00015247Y00010773D01*
X00015224Y00010755D01*
X00015201Y00010735D01*
X00015180Y00010713D01*
X00015161Y00010690D01*
X00015144Y00010665D01*
X00015128Y00010639D01*
X00015115Y00010612D01*
X00015103Y00010585D01*
X00015094Y00010556D01*
X00015087Y00010527D01*
X00015083Y00010497D01*
X00015080Y00010467D01*
X00015024Y00009162D01*
X00015024Y00009130D01*
X00015027Y00009099D01*
X00015032Y00009067D01*
X00015039Y00009036D01*
X00015049Y00009006D01*
X00015062Y00008977D01*
X00015077Y00008949D01*
X00015094Y00008922D01*
X00015113Y00008897D01*
X00015134Y00008873D01*
X00015156Y00008851D01*
X00015181Y00008831D01*
X00015207Y00008813D01*
X00015235Y00008797D01*
X00015263Y00008783D01*
X00015293Y00008772D01*
X00015323Y00008763D01*
X00015355Y00008757D01*
X00015386Y00008753D01*
X00015418Y00008751D01*
X00006235Y00008751D02*
X00006235Y00008751D01*
X00003607Y00008751D01*
X00003575Y00008753D01*
X00003544Y00008757D01*
X00003512Y00008763D01*
X00003482Y00008772D01*
X00003452Y00008783D01*
X00003424Y00008797D01*
X00003396Y00008813D01*
X00003370Y00008831D01*
X00003345Y00008851D01*
X00003323Y00008873D01*
X00003302Y00008897D01*
X00003282Y00008922D01*
X00003266Y00008949D01*
X00003251Y00008977D01*
X00003238Y00009006D01*
X00003228Y00009036D01*
X00003221Y00009067D01*
X00003216Y00009099D01*
X00003213Y00009130D01*
X00003213Y00009162D01*
X00003269Y00010467D01*
X00003272Y00010497D01*
X00003276Y00010527D01*
X00003283Y00010556D01*
X00003292Y00010585D01*
X00003304Y00010612D01*
X00003317Y00010639D01*
X00003333Y00010665D01*
X00003350Y00010690D01*
X00003369Y00010713D01*
X00003390Y00010735D01*
X00003413Y00010755D01*
X00003436Y00010773D01*
X00003462Y00010789D01*
X00003488Y00010803D01*
X00003516Y00010816D01*
X00003544Y00010826D01*
X00003573Y00010834D01*
X00003602Y00010839D01*
X00003632Y00010843D01*
X00003662Y00010844D01*
X00006179Y00010844D01*
X00006209Y00010843D01*
X00006239Y00010839D01*
X00006269Y00010834D01*
X00006298Y00010826D01*
X00006326Y00010816D01*
X00006353Y00010803D01*
X00006380Y00010789D01*
X00006405Y00010773D01*
X00006429Y00010755D01*
X00006451Y00010735D01*
X00006472Y00010713D01*
X00006492Y00010690D01*
X00006509Y00010665D01*
X00006524Y00010639D01*
X00006538Y00010612D01*
X00006549Y00010585D01*
X00006558Y00010556D01*
X00006565Y00010527D01*
X00006570Y00010497D01*
X00006572Y00010467D01*
X00006628Y00009162D01*
X00006628Y00009130D01*
X00006626Y00009099D01*
X00006621Y00009067D01*
X00006613Y00009036D01*
X00006603Y00009006D01*
X00006591Y00008977D01*
X00006576Y00008949D01*
X00006559Y00008922D01*
X00006540Y00008897D01*
X00006519Y00008873D01*
X00006496Y00008851D01*
X00006472Y00008831D01*
X00006445Y00008813D01*
X00006418Y00008797D01*
X00006389Y00008783D01*
X00006360Y00008772D01*
X00006329Y00008763D01*
X00006298Y00008757D01*
X00006266Y00008753D01*
X00006235Y00008751D01*
M02*