%
M48
METRIC,000.000
T01C0.20
T02C0.81
T03C0.90
T05C0.20
T06C0.81
T07C0.90
T09C0.50
%
T01
X009525Y019055
X009525Y018420
X009525Y017784
X009525Y017150
X009525Y016515
X009525Y015879
X009525Y015245
X009525Y014610
X009525Y013974
X009525Y013340
X009525Y012704
X009525Y012069
X009525Y011435
X010159Y019055
X010159Y011435
X010794Y019055
X010794Y011435
X011430Y019055
X011430Y011435
X012064Y019055
X012064Y011435
X012699Y019055
X012699Y011435
X013335Y019055
X013335Y011435
X013969Y019055
X013969Y011435
X014604Y019055
X014604Y011435
X015240Y019055
X015240Y011435
X015875Y019055
X015875Y011435
X019050Y019055
X019050Y011435
X019685Y019055
X019685Y011435
X020319Y019055
X020319Y011435
X020955Y019055
X020955Y011435
X021590Y019055
X021590Y011435
X022224Y019055
X022224Y011435
X022860Y019055
X022860Y018420
X022860Y017784
X022860Y012704
X022860Y012069
X022860Y011435
X023495Y019055
X023495Y018420
X023495Y017784
X023495Y012704
X023495Y012069
X023495Y011435
X024129Y019055
X024129Y018420
X024129Y017784
X024129Y012704
X024129Y012069
X024129Y011435
T02
X012699Y006989
X020319Y004450
X025400Y006989
T03
X003810Y015245
X003810Y010165
X035560Y015245
X035560Y010165
T05
X009525Y044055
X009525Y043420
X009525Y042785
X009525Y042150
X009525Y041515
X009525Y040879
X009525Y040245
X009525Y039610
X009525Y038974
X009525Y038340
X009525Y037705
X009525Y037069
X009525Y036435
X010159Y044055
X010159Y036435
X010794Y044055
X010794Y036435
X011430Y044055
X011430Y036435
X012064Y044055
X012064Y036435
X012699Y044055
X012699Y036435
X013335Y044055
X013335Y036435
X013969Y044055
X013969Y036435
X014604Y044055
X014604Y036435
X015240Y044055
X015240Y036435
X015875Y044055
X015875Y036435
X019050Y044055
X019050Y036435
X019685Y044055
X019685Y036435
X020319Y044055
X020319Y036435
X020955Y044055
X020955Y036435
X021590Y044055
X021590Y036435
X022224Y044055
X022224Y036435
X022860Y044055
X022860Y043420
X022860Y042785
X022860Y037705
X022860Y037069
X022860Y036435
X023495Y044055
X023495Y043420
X023495Y042785
X023495Y037705
X023495Y037069
X023495Y036435
X024129Y044055
X024129Y043420
X024129Y042785
X024129Y037705
X024129Y037069
X024129Y036435
T06
X012699Y031989
X020319Y029450
X025400Y031989
T07
X003810Y040245
X003810Y035165
X035560Y040245
X035560Y035165
T09
X008840Y022480
X007840Y022480
X006840Y022480
X005840Y022480
X004840Y022480
X003840Y022480
X002840Y022480
X001840Y022480
X000840Y022480
X000689Y027295
X001689Y027295
X002689Y027295
X003689Y027295
X004689Y027295
X005689Y027295
X006689Y027295
X007689Y027295
X008689Y027295
X023840Y022480
X022840Y022480
X021840Y022480
X020840Y022480
X019840Y022480
X018840Y022480
X017840Y022480
X016840Y022480
X015840Y022480
X015689Y027295
X016689Y027295
X017689Y027295
X018689Y027295
X019689Y027295
X020689Y027295
X021689Y027295
X022689Y027295
X023689Y027295
X038840Y022480
X037840Y022480
X036840Y022480
X035840Y022480
X034840Y022480
X033840Y022480
X032840Y022480
X031840Y022480
X030840Y022480
X030689Y027295
X031689Y027295
X032689Y027295
X033689Y027295
X034689Y027295
X035689Y027295
X036689Y027295
X037689Y027295
X038689Y027295
M30