%MOIN*%
%OFA0B0*%
%FSLAX46Y46*%
%IPPOS*%
%LPD*%
%ADD10C,0.0039370078740157488*%
%ADD11C,0.005905511811023622*%
%ADD12C,0.011811023622047244*%
%ADD13C,0.015000000000000001*%
%ADD14C,0.012000000000000002*%
%ADD15C,0.005*%
%ADD26C,0.0039370078740157488*%
%ADD27C,0.005905511811023622*%
%ADD28C,0.011811023622047244*%
%ADD29C,0.015000000000000001*%
%ADD30C,0.012000000000000002*%
%ADD31C,0.005*%
%LPD*%
G01G01*
D10*
D11*
X0001365944Y0000811839D02*
X0001363132Y0000813245D01*
X0001361726Y0000814651D01*
X0001360320Y0000817463D01*
X0001360320Y0000825899D01*
X0001361726Y0000828712D01*
X0001363132Y0000830118D01*
X0001365944Y0000831524D01*
X0001370163Y0000831524D01*
X0001372975Y0000830118D01*
X0001374381Y0000828712D01*
X0001375787Y0000825899D01*
X0001375787Y0000817463D01*
X0001374381Y0000814651D01*
X0001372975Y0000813245D01*
X0001370163Y0000811839D01*
X0001365944Y0000811839D01*
X0001401096Y0000831524D02*
X0001401096Y0000811839D01*
X0001388442Y0000831524D02*
X0001388442Y0000816057D01*
X0001389848Y0000813245D01*
X0001392660Y0000811839D01*
X0001396878Y0000811839D01*
X0001399690Y0000813245D01*
X0001401096Y0000814651D01*
X0001410939Y0000831524D02*
X0001422187Y0000831524D01*
X0001415157Y0000841366D02*
X0001415157Y0000816057D01*
X0001416563Y0000813245D01*
X0001419375Y0000811839D01*
X0001422187Y0000811839D01*
X0001432030Y0000831524D02*
X0001432030Y0000801996D01*
X0001432030Y0000830118D02*
X0001434842Y0000831524D01*
X0001440466Y0000831524D01*
X0001443278Y0000830118D01*
X0001444685Y0000828712D01*
X0001446091Y0000825899D01*
X0001446091Y0000817463D01*
X0001444685Y0000814651D01*
X0001443278Y0000813245D01*
X0001440466Y0000811839D01*
X0001434842Y0000811839D01*
X0001432030Y0000813245D01*
X0001471400Y0000831524D02*
X0001471400Y0000811839D01*
X0001458745Y0000831524D02*
X0001458745Y0000816057D01*
X0001460151Y0000813245D01*
X0001462963Y0000811839D01*
X0001467182Y0000811839D01*
X0001469994Y0000813245D01*
X0001471400Y0000814651D01*
X0001481242Y0000831524D02*
X0001492491Y0000831524D01*
X0001485461Y0000841366D02*
X0001485461Y0000816057D01*
X0001486867Y0000813245D01*
X0001489679Y0000811839D01*
X0001492491Y0000811839D01*
X0000076490Y0000811839D02*
X0000076490Y0000831524D01*
X0000076490Y0000841366D02*
X0000075084Y0000839960D01*
X0000076490Y0000838554D01*
X0000077896Y0000839960D01*
X0000076490Y0000841366D01*
X0000076490Y0000838554D01*
X0000090551Y0000831524D02*
X0000090551Y0000811839D01*
X0000090551Y0000828712D02*
X0000091957Y0000830118D01*
X0000094769Y0000831524D01*
X0000098987Y0000831524D01*
X0000101799Y0000830118D01*
X0000103205Y0000827305D01*
X0000103205Y0000811839D01*
X0000117266Y0000831524D02*
X0000117266Y0000801996D01*
X0000117266Y0000830118D02*
X0000120078Y0000831524D01*
X0000125703Y0000831524D01*
X0000128515Y0000830118D01*
X0000129921Y0000828712D01*
X0000131327Y0000825899D01*
X0000131327Y0000817463D01*
X0000129921Y0000814651D01*
X0000128515Y0000813245D01*
X0000125703Y0000811839D01*
X0000120078Y0000811839D01*
X0000117266Y0000813245D01*
X0000156636Y0000831524D02*
X0000156636Y0000811839D01*
X0000143981Y0000831524D02*
X0000143981Y0000816057D01*
X0000145388Y0000813245D01*
X0000148200Y0000811839D01*
X0000152418Y0000811839D01*
X0000155230Y0000813245D01*
X0000156636Y0000814651D01*
X0000166479Y0000831524D02*
X0000177727Y0000831524D01*
X0000170697Y0000841366D02*
X0000170697Y0000816057D01*
X0000172103Y0000813245D01*
X0000174915Y0000811839D01*
X0000177727Y0000811839D01*
X0001215016Y0000182386D02*
X0001196269Y0000182386D01*
X0001196269Y0000221756D01*
X0001228140Y0000182386D02*
X0001228140Y0000208633D01*
X0001228140Y0000221756D02*
X0001226265Y0000219881D01*
X0001228140Y0000218007D01*
X0001230014Y0000219881D01*
X0001228140Y0000221756D01*
X0001228140Y0000218007D01*
X0001246887Y0000182386D02*
X0001246887Y0000221756D01*
X0001261886Y0000221756D01*
X0001265635Y0000219881D01*
X0001267510Y0000218007D01*
X0001269385Y0000214257D01*
X0001269385Y0000208633D01*
X0001267510Y0000204883D01*
X0001265635Y0000203009D01*
X0001261886Y0000201134D01*
X0001246887Y0000201134D01*
X0001291882Y0000182386D02*
X0001288132Y0000184261D01*
X0001286257Y0000186136D01*
X0001284383Y0000189885D01*
X0001284383Y0000201134D01*
X0001286257Y0000204883D01*
X0001288132Y0000206758D01*
X0001291882Y0000208633D01*
X0001297506Y0000208633D01*
X0001301256Y0000206758D01*
X0001303130Y0000204883D01*
X0001305005Y0000201134D01*
X0001305005Y0000189885D01*
X0001303130Y0000186136D01*
X0001301256Y0000184261D01*
X0001297506Y0000182386D01*
X0001291882Y0000182386D01*
X0001372497Y0000219881D02*
X0001368747Y0000221756D01*
X0001363123Y0000221756D01*
X0001357499Y0000219881D01*
X0001353749Y0000216132D01*
X0001351874Y0000212382D01*
X0001349999Y0000204883D01*
X0001349999Y0000199259D01*
X0001351874Y0000191760D01*
X0001353749Y0000188010D01*
X0001357499Y0000184261D01*
X0001363123Y0000182386D01*
X0001366872Y0000182386D01*
X0001372497Y0000184261D01*
X0001374371Y0000186136D01*
X0001374371Y0000199259D01*
X0001366872Y0000199259D01*
X0001408117Y0000208633D02*
X0001408117Y0000182386D01*
X0001391244Y0000208633D02*
X0001391244Y0000188010D01*
X0001393119Y0000184261D01*
X0001396869Y0000182386D01*
X0001402493Y0000182386D01*
X0001406242Y0000184261D01*
X0001408117Y0000186136D01*
X0001443738Y0000182386D02*
X0001443738Y0000203009D01*
X0001441863Y0000206758D01*
X0001438114Y0000208633D01*
X0001430614Y0000208633D01*
X0001426865Y0000206758D01*
X0001443738Y0000184261D02*
X0001439988Y0000182386D01*
X0001430614Y0000182386D01*
X0001426865Y0000184261D01*
X0001424990Y0000188010D01*
X0001424990Y0000191760D01*
X0001426865Y0000195509D01*
X0001430614Y0000197384D01*
X0001439988Y0000197384D01*
X0001443738Y0000199259D01*
X0001462485Y0000182386D02*
X0001462485Y0000208633D01*
X0001462485Y0000201134D02*
X0001464360Y0000204883D01*
X0001466235Y0000206758D01*
X0001469984Y0000208633D01*
X0001473734Y0000208633D01*
X0001503730Y0000182386D02*
X0001503730Y0000221756D01*
X0001503730Y0000184261D02*
X0001499981Y0000182386D01*
X0001492482Y0000182386D01*
X0001488732Y0000184261D01*
X0001486857Y0000186136D01*
X0001484983Y0000189885D01*
X0001484983Y0000201134D01*
X0001486857Y0000204883D01*
X0001488732Y0000206758D01*
X0001492482Y0000208633D01*
X0001499981Y0000208633D01*
X0001503730Y0000206758D01*
D12*
X0001377502Y0000770978D02*
X0001422497Y0000770978D01*
X0001400000Y0000748481D02*
X0001400000Y0000793475D01*
X0000127502Y0000770978D02*
X0000172497Y0000770978D01*
X0000150000Y0000748481D02*
X0000150000Y0000793475D01*
D13*
X0000404299Y0000730096D02*
X0000404299Y0000470296D01*
X0000404299Y0000470296D02*
X0000695700Y0000470296D01*
X0000695700Y0000470296D02*
X0000695700Y0000730096D01*
X0000695700Y0000730096D02*
X0000404299Y0000730096D01*
D14*
X0001499999Y0000700196D02*
X0001499999Y0000300196D01*
X0001550000Y0000700196D02*
X0001250000Y0000700196D01*
X0001250000Y0000700196D02*
X0001250000Y0000300196D01*
X0001250000Y0000300196D02*
X0001550000Y0000300196D01*
X0001550000Y0000300196D02*
X0001550000Y0000700196D01*
D15*
X0001105000Y0000850196D02*
X0001195000Y0000850196D01*
X0001195000Y0000850196D02*
X0001195000Y0000800196D01*
X0001195000Y0000800196D02*
X0001105000Y0000800196D01*
X0001105000Y0000800196D02*
X0001105000Y0000850196D01*
X0001105000Y0000775196D02*
X0001195000Y0000775196D01*
X0001195000Y0000775196D02*
X0001195000Y0000725196D01*
X0001195000Y0000725196D02*
X0001105000Y0000725196D01*
X0001105000Y0000725196D02*
X0001105000Y0000775196D01*
D14*
X0000050000Y0000300196D02*
X0000050000Y0000700196D01*
X0000000000Y0000300196D02*
X0000300000Y0000300196D01*
X0000300000Y0000300196D02*
X0000300000Y0000700196D01*
X0000300000Y0000700196D02*
X0000000000Y0000700196D01*
X0000000000Y0000700196D02*
X0000000000Y0000300196D01*
D15*
X0000979999Y0000850196D02*
X0001069999Y0000850196D01*
X0001069999Y0000850196D02*
X0001069999Y0000800196D01*
X0001069999Y0000800196D02*
X0000979999Y0000800196D01*
X0000979999Y0000800196D02*
X0000979999Y0000850196D01*
X0000979999Y0000775196D02*
X0001069999Y0000775196D01*
X0001069999Y0000775196D02*
X0001069999Y0000725196D01*
X0001069999Y0000725196D02*
X0000979999Y0000725196D01*
X0000979999Y0000725196D02*
X0000979999Y0000775196D01*
X0001030000Y0000475196D02*
X0001120000Y0000475196D01*
X0001120000Y0000475196D02*
X0001120000Y0000425196D01*
X0001120000Y0000425196D02*
X0001030000Y0000425196D01*
X0001030000Y0000425196D02*
X0001030000Y0000475196D01*
X0001105000Y0000675196D02*
X0001195000Y0000675196D01*
X0001195000Y0000675196D02*
X0001195000Y0000625196D01*
X0001195000Y0000625196D02*
X0001105000Y0000625196D01*
X0001105000Y0000625196D02*
X0001105000Y0000675196D01*
D13*
X0001099999Y0000200196D02*
X0001124999Y0000200196D01*
X0001124999Y0000200196D02*
X0001124999Y0000250196D01*
X0001124999Y0000250196D02*
X0001099999Y0000250196D01*
X0001099999Y0000275196D02*
X0000399999Y0000275196D01*
X0000399999Y0000275196D02*
X0000399999Y0000175196D01*
X0000399999Y0000175196D02*
X0001099999Y0000175196D01*
X0001099999Y0000175196D02*
X0001099999Y0000275196D01*
D15*
X0001152500Y0000587696D02*
X0001178499Y0000587696D01*
X0001152500Y0000512696D02*
X0001178499Y0000512696D01*
X0001097499Y0000550196D02*
X0001071500Y0000550196D01*
X0001097499Y0000491196D02*
X0001097499Y0000609196D01*
X0001097499Y0000609196D02*
X0001152500Y0000609196D01*
X0001152500Y0000609196D02*
X0001152500Y0000491196D01*
X0001152500Y0000491196D02*
X0001097499Y0000491196D01*
X0001030000Y0000400196D02*
X0001120000Y0000400196D01*
X0001120000Y0000400196D02*
X0001120000Y0000350196D01*
X0001120000Y0000350196D02*
X0001030000Y0000350196D01*
X0001030000Y0000350196D02*
X0001030000Y0000400196D01*
X0000354999Y0000400196D02*
X0000444999Y0000400196D01*
X0000444999Y0000400196D02*
X0000444999Y0000350196D01*
X0000444999Y0000350196D02*
X0000354999Y0000350196D01*
X0000354999Y0000350196D02*
X0000354999Y0000400196D01*
D11*
X0000527502Y0000816366D02*
X0000527502Y0000792463D01*
X0000528908Y0000789651D01*
X0000530314Y0000788245D01*
X0000533127Y0000786839D01*
X0000538751Y0000786839D01*
X0000541563Y0000788245D01*
X0000542969Y0000789651D01*
X0000544375Y0000792463D01*
X0000544375Y0000816366D01*
X0000573903Y0000786839D02*
X0000557030Y0000786839D01*
X0000565466Y0000786839D02*
X0000565466Y0000816366D01*
X0000562654Y0000812148D01*
X0000559842Y0000809336D01*
X0000557030Y0000807930D01*
X0001378205Y0000711839D02*
X0001378205Y0000741366D01*
X0001389454Y0000741366D01*
X0001392266Y0000739960D01*
X0001393672Y0000738554D01*
X0001395078Y0000735742D01*
X0001395078Y0000731524D01*
X0001393672Y0000728712D01*
X0001392266Y0000727305D01*
X0001389454Y0000725899D01*
X0001378205Y0000725899D01*
X0001406327Y0000738554D02*
X0001407733Y0000739960D01*
X0001410545Y0000741366D01*
X0001417575Y0000741366D01*
X0001420388Y0000739960D01*
X0001421794Y0000738554D01*
X0001423200Y0000735742D01*
X0001423200Y0000732930D01*
X0001421794Y0000728712D01*
X0001404921Y0000711839D01*
X0001423200Y0000711839D01*
X0001203205Y0000811839D02*
X0001203205Y0000841366D01*
X0001210236Y0000841366D01*
X0001214454Y0000839960D01*
X0001217266Y0000837148D01*
X0001218672Y0000834336D01*
X0001220078Y0000828712D01*
X0001220078Y0000824493D01*
X0001218672Y0000818869D01*
X0001217266Y0000816057D01*
X0001214454Y0000813245D01*
X0001210236Y0000811839D01*
X0001203205Y0000811839D01*
X0001248200Y0000811839D02*
X0001231327Y0000811839D01*
X0001239763Y0000811839D02*
X0001239763Y0000841366D01*
X0001236951Y0000837148D01*
X0001234139Y0000834336D01*
X0001231327Y0000832930D01*
X0001203205Y0000736839D02*
X0001203205Y0000766366D01*
X0001210236Y0000766366D01*
X0001214454Y0000764960D01*
X0001217266Y0000762148D01*
X0001218672Y0000759336D01*
X0001220078Y0000753712D01*
X0001220078Y0000749493D01*
X0001218672Y0000743869D01*
X0001217266Y0000741057D01*
X0001214454Y0000738245D01*
X0001210236Y0000736839D01*
X0001203205Y0000736839D01*
X0001231327Y0000763554D02*
X0001232733Y0000764960D01*
X0001235545Y0000766366D01*
X0001242575Y0000766366D01*
X0001245388Y0000764960D01*
X0001246794Y0000763554D01*
X0001248200Y0000760742D01*
X0001248200Y0000757930D01*
X0001246794Y0000753712D01*
X0001229921Y0000736839D01*
X0001248200Y0000736839D01*
X0000128205Y0000711839D02*
X0000128205Y0000741366D01*
X0000139454Y0000741366D01*
X0000142266Y0000739960D01*
X0000143672Y0000738554D01*
X0000145078Y0000735742D01*
X0000145078Y0000731524D01*
X0000143672Y0000728712D01*
X0000142266Y0000727305D01*
X0000139454Y0000725899D01*
X0000128205Y0000725899D01*
X0000173200Y0000711839D02*
X0000156327Y0000711839D01*
X0000164763Y0000711839D02*
X0000164763Y0000741366D01*
X0000161951Y0000737148D01*
X0000159139Y0000734336D01*
X0000156327Y0000732930D01*
X0000945078Y0000811839D02*
X0000935236Y0000825899D01*
X0000928205Y0000811839D02*
X0000928205Y0000841366D01*
X0000939454Y0000841366D01*
X0000942266Y0000839960D01*
X0000943672Y0000838554D01*
X0000945078Y0000835742D01*
X0000945078Y0000831524D01*
X0000943672Y0000828712D01*
X0000942266Y0000827305D01*
X0000939454Y0000825899D01*
X0000928205Y0000825899D01*
X0000973200Y0000811839D02*
X0000956327Y0000811839D01*
X0000964763Y0000811839D02*
X0000964763Y0000841366D01*
X0000961951Y0000837148D01*
X0000959139Y0000834336D01*
X0000956327Y0000832930D01*
X0000945078Y0000736839D02*
X0000935236Y0000750899D01*
X0000928205Y0000736839D02*
X0000928205Y0000766366D01*
X0000939454Y0000766366D01*
X0000942266Y0000764960D01*
X0000943672Y0000763554D01*
X0000945078Y0000760742D01*
X0000945078Y0000756524D01*
X0000943672Y0000753712D01*
X0000942266Y0000752305D01*
X0000939454Y0000750899D01*
X0000928205Y0000750899D01*
X0000956327Y0000763554D02*
X0000957733Y0000764960D01*
X0000960545Y0000766366D01*
X0000967575Y0000766366D01*
X0000970388Y0000764960D01*
X0000971794Y0000763554D01*
X0000973200Y0000760742D01*
X0000973200Y0000757930D01*
X0000971794Y0000753712D01*
X0000954921Y0000736839D01*
X0000973200Y0000736839D01*
X0001170078Y0000436839D02*
X0001160236Y0000450899D01*
X0001153205Y0000436839D02*
X0001153205Y0000466366D01*
X0001164454Y0000466366D01*
X0001167266Y0000464960D01*
X0001168672Y0000463554D01*
X0001170078Y0000460742D01*
X0001170078Y0000456524D01*
X0001168672Y0000453712D01*
X0001167266Y0000452305D01*
X0001164454Y0000450899D01*
X0001153205Y0000450899D01*
X0001195388Y0000456524D02*
X0001195388Y0000436839D01*
X0001188357Y0000467772D02*
X0001181327Y0000446681D01*
X0001199606Y0000446681D01*
X0001070078Y0000636839D02*
X0001060236Y0000650899D01*
X0001053205Y0000636839D02*
X0001053205Y0000666366D01*
X0001064454Y0000666366D01*
X0001067266Y0000664960D01*
X0001068672Y0000663554D01*
X0001070078Y0000660742D01*
X0001070078Y0000656524D01*
X0001068672Y0000653712D01*
X0001067266Y0000652305D01*
X0001064454Y0000650899D01*
X0001053205Y0000650899D01*
X0001079921Y0000666366D02*
X0001098200Y0000666366D01*
X0001088357Y0000655118D01*
X0001092575Y0000655118D01*
X0001095388Y0000653712D01*
X0001096794Y0000652305D01*
X0001098200Y0000649493D01*
X0001098200Y0000642463D01*
X0001096794Y0000639651D01*
X0001095388Y0000638245D01*
X0001092575Y0000636839D01*
X0001084139Y0000636839D01*
X0001081327Y0000638245D01*
X0001079921Y0000639651D01*
X0000332424Y0000211839D02*
X0000322581Y0000225899D01*
X0000315551Y0000211839D02*
X0000315551Y0000241366D01*
X0000326799Y0000241366D01*
X0000329611Y0000239960D01*
X0000331018Y0000238554D01*
X0000332424Y0000235742D01*
X0000332424Y0000231524D01*
X0000331018Y0000228712D01*
X0000329611Y0000227305D01*
X0000326799Y0000225899D01*
X0000315551Y0000225899D01*
X0000340860Y0000241366D02*
X0000350703Y0000211839D01*
X0000360545Y0000241366D01*
X0000385854Y0000211839D02*
X0000368981Y0000211839D01*
X0000377418Y0000211839D02*
X0000377418Y0000241366D01*
X0000374606Y0000237148D01*
X0000371794Y0000234336D01*
X0000368981Y0000232930D01*
X0001022187Y0000534026D02*
X0001019375Y0000535433D01*
X0001016563Y0000538245D01*
X0001012345Y0000542463D01*
X0001009533Y0000543869D01*
X0001006721Y0000543869D01*
X0001008127Y0000536839D02*
X0001005314Y0000538245D01*
X0001002502Y0000541057D01*
X0001001096Y0000546681D01*
X0001001096Y0000556524D01*
X0001002502Y0000562148D01*
X0001005314Y0000564960D01*
X0001008127Y0000566366D01*
X0001013751Y0000566366D01*
X0001016563Y0000564960D01*
X0001019375Y0000562148D01*
X0001020781Y0000556524D01*
X0001020781Y0000546681D01*
X0001019375Y0000541057D01*
X0001016563Y0000538245D01*
X0001013751Y0000536839D01*
X0001008127Y0000536839D01*
X0001048903Y0000536839D02*
X0001032030Y0000536839D01*
X0001040466Y0000536839D02*
X0001040466Y0000566366D01*
X0001037654Y0000562148D01*
X0001034842Y0000559336D01*
X0001032030Y0000557930D01*
X0001170078Y0000364651D02*
X0001168672Y0000363245D01*
X0001164454Y0000361839D01*
X0001161642Y0000361839D01*
X0001157424Y0000363245D01*
X0001154611Y0000366057D01*
X0001153205Y0000368869D01*
X0001151799Y0000374493D01*
X0001151799Y0000378712D01*
X0001153205Y0000384336D01*
X0001154611Y0000387148D01*
X0001157424Y0000389960D01*
X0001161642Y0000391366D01*
X0001164454Y0000391366D01*
X0001168672Y0000389960D01*
X0001170078Y0000388554D01*
X0001198200Y0000361839D02*
X0001181327Y0000361839D01*
X0001189763Y0000361839D02*
X0001189763Y0000391366D01*
X0001186951Y0000387148D01*
X0001184139Y0000384336D01*
X0001181327Y0000382930D01*
X0000495078Y0000361839D02*
X0000485236Y0000375899D01*
X0000478205Y0000361839D02*
X0000478205Y0000391366D01*
X0000489454Y0000391366D01*
X0000492266Y0000389960D01*
X0000493672Y0000388554D01*
X0000495078Y0000385742D01*
X0000495078Y0000381524D01*
X0000493672Y0000378712D01*
X0000492266Y0000377305D01*
X0000489454Y0000375899D01*
X0000478205Y0000375899D01*
X0000521794Y0000391366D02*
X0000507733Y0000391366D01*
X0000506327Y0000377305D01*
X0000507733Y0000378712D01*
X0000510545Y0000380118D01*
X0000517575Y0000380118D01*
X0000520388Y0000378712D01*
X0000521794Y0000377305D01*
X0000523200Y0000374493D01*
X0000523200Y0000367463D01*
X0000521794Y0000364651D01*
X0000520388Y0000363245D01*
X0000517575Y0000361839D01*
X0000510545Y0000361839D01*
X0000507733Y0000363245D01*
X0000506327Y0000364651D01*
G04 next file*
G04 #@! TF.FileFunction,Legend,Top*
G04 Gerber Fmt 4.6, Leading zero omitted, Abs format (unit mm)*
G04 Created by KiCad (PCBNEW 4.0.4-stable) date Thu Oct  6 13:32:55 2016*
G01G01*
G04 APERTURE LIST*
G04 APERTURE END LIST*
D26*
D27*
X0001365944Y0001796091D02*
X0001363132Y0001797497D01*
X0001361726Y0001798903D01*
X0001360320Y0001801715D01*
X0001360320Y0001810151D01*
X0001361726Y0001812963D01*
X0001363132Y0001814370D01*
X0001365944Y0001815776D01*
X0001370163Y0001815776D01*
X0001372975Y0001814370D01*
X0001374381Y0001812963D01*
X0001375787Y0001810151D01*
X0001375787Y0001801715D01*
X0001374381Y0001798903D01*
X0001372975Y0001797497D01*
X0001370163Y0001796091D01*
X0001365944Y0001796091D01*
X0001401096Y0001815776D02*
X0001401096Y0001796091D01*
X0001388442Y0001815776D02*
X0001388442Y0001800309D01*
X0001389848Y0001797497D01*
X0001392660Y0001796091D01*
X0001396878Y0001796091D01*
X0001399690Y0001797497D01*
X0001401096Y0001798903D01*
X0001410939Y0001815776D02*
X0001422187Y0001815776D01*
X0001415157Y0001825618D02*
X0001415157Y0001800309D01*
X0001416563Y0001797497D01*
X0001419375Y0001796091D01*
X0001422187Y0001796091D01*
X0001432030Y0001815776D02*
X0001432030Y0001786248D01*
X0001432030Y0001814370D02*
X0001434842Y0001815776D01*
X0001440466Y0001815776D01*
X0001443278Y0001814370D01*
X0001444685Y0001812963D01*
X0001446091Y0001810151D01*
X0001446091Y0001801715D01*
X0001444685Y0001798903D01*
X0001443278Y0001797497D01*
X0001440466Y0001796091D01*
X0001434842Y0001796091D01*
X0001432030Y0001797497D01*
X0001471400Y0001815776D02*
X0001471400Y0001796091D01*
X0001458745Y0001815776D02*
X0001458745Y0001800309D01*
X0001460151Y0001797497D01*
X0001462963Y0001796091D01*
X0001467182Y0001796091D01*
X0001469994Y0001797497D01*
X0001471400Y0001798903D01*
X0001481242Y0001815776D02*
X0001492491Y0001815776D01*
X0001485461Y0001825618D02*
X0001485461Y0001800309D01*
X0001486867Y0001797497D01*
X0001489679Y0001796091D01*
X0001492491Y0001796091D01*
X0000076490Y0001796091D02*
X0000076490Y0001815776D01*
X0000076490Y0001825618D02*
X0000075084Y0001824212D01*
X0000076490Y0001822806D01*
X0000077896Y0001824212D01*
X0000076490Y0001825618D01*
X0000076490Y0001822806D01*
X0000090551Y0001815776D02*
X0000090551Y0001796091D01*
X0000090551Y0001812963D02*
X0000091957Y0001814370D01*
X0000094769Y0001815776D01*
X0000098987Y0001815776D01*
X0000101799Y0001814370D01*
X0000103205Y0001811557D01*
X0000103205Y0001796091D01*
X0000117266Y0001815776D02*
X0000117266Y0001786248D01*
X0000117266Y0001814370D02*
X0000120078Y0001815776D01*
X0000125703Y0001815776D01*
X0000128515Y0001814370D01*
X0000129921Y0001812963D01*
X0000131327Y0001810151D01*
X0000131327Y0001801715D01*
X0000129921Y0001798903D01*
X0000128515Y0001797497D01*
X0000125703Y0001796091D01*
X0000120078Y0001796091D01*
X0000117266Y0001797497D01*
X0000156636Y0001815776D02*
X0000156636Y0001796091D01*
X0000143981Y0001815776D02*
X0000143981Y0001800309D01*
X0000145388Y0001797497D01*
X0000148200Y0001796091D01*
X0000152418Y0001796091D01*
X0000155230Y0001797497D01*
X0000156636Y0001798903D01*
X0000166479Y0001815776D02*
X0000177727Y0001815776D01*
X0000170697Y0001825618D02*
X0000170697Y0001800309D01*
X0000172103Y0001797497D01*
X0000174915Y0001796091D01*
X0000177727Y0001796091D01*
X0001215016Y0001166638D02*
X0001196269Y0001166638D01*
X0001196269Y0001206008D01*
X0001228140Y0001166638D02*
X0001228140Y0001192885D01*
X0001228140Y0001206008D02*
X0001226265Y0001204133D01*
X0001228140Y0001202259D01*
X0001230014Y0001204133D01*
X0001228140Y0001206008D01*
X0001228140Y0001202259D01*
X0001246887Y0001166638D02*
X0001246887Y0001206008D01*
X0001261886Y0001206008D01*
X0001265635Y0001204133D01*
X0001267510Y0001202259D01*
X0001269385Y0001198509D01*
X0001269385Y0001192885D01*
X0001267510Y0001189135D01*
X0001265635Y0001187260D01*
X0001261886Y0001185386D01*
X0001246887Y0001185386D01*
X0001291882Y0001166638D02*
X0001288132Y0001168513D01*
X0001286257Y0001170388D01*
X0001284383Y0001174137D01*
X0001284383Y0001185386D01*
X0001286257Y0001189135D01*
X0001288132Y0001191010D01*
X0001291882Y0001192885D01*
X0001297506Y0001192885D01*
X0001301256Y0001191010D01*
X0001303130Y0001189135D01*
X0001305005Y0001185386D01*
X0001305005Y0001174137D01*
X0001303130Y0001170388D01*
X0001301256Y0001168513D01*
X0001297506Y0001166638D01*
X0001291882Y0001166638D01*
X0001372497Y0001204133D02*
X0001368747Y0001206008D01*
X0001363123Y0001206008D01*
X0001357499Y0001204133D01*
X0001353749Y0001200384D01*
X0001351874Y0001196634D01*
X0001349999Y0001189135D01*
X0001349999Y0001183511D01*
X0001351874Y0001176012D01*
X0001353749Y0001172262D01*
X0001357499Y0001168513D01*
X0001363123Y0001166638D01*
X0001366872Y0001166638D01*
X0001372497Y0001168513D01*
X0001374371Y0001170388D01*
X0001374371Y0001183511D01*
X0001366872Y0001183511D01*
X0001408117Y0001192885D02*
X0001408117Y0001166638D01*
X0001391244Y0001192885D02*
X0001391244Y0001172262D01*
X0001393119Y0001168513D01*
X0001396869Y0001166638D01*
X0001402493Y0001166638D01*
X0001406242Y0001168513D01*
X0001408117Y0001170388D01*
X0001443738Y0001166638D02*
X0001443738Y0001187260D01*
X0001441863Y0001191010D01*
X0001438114Y0001192885D01*
X0001430614Y0001192885D01*
X0001426865Y0001191010D01*
X0001443738Y0001168513D02*
X0001439988Y0001166638D01*
X0001430614Y0001166638D01*
X0001426865Y0001168513D01*
X0001424990Y0001172262D01*
X0001424990Y0001176012D01*
X0001426865Y0001179761D01*
X0001430614Y0001181636D01*
X0001439988Y0001181636D01*
X0001443738Y0001183511D01*
X0001462485Y0001166638D02*
X0001462485Y0001192885D01*
X0001462485Y0001185386D02*
X0001464360Y0001189135D01*
X0001466235Y0001191010D01*
X0001469984Y0001192885D01*
X0001473734Y0001192885D01*
X0001503730Y0001166638D02*
X0001503730Y0001206008D01*
X0001503730Y0001168513D02*
X0001499981Y0001166638D01*
X0001492482Y0001166638D01*
X0001488732Y0001168513D01*
X0001486857Y0001170388D01*
X0001484983Y0001174137D01*
X0001484983Y0001185386D01*
X0001486857Y0001189135D01*
X0001488732Y0001191010D01*
X0001492482Y0001192885D01*
X0001499981Y0001192885D01*
X0001503730Y0001191010D01*
D28*
X0001377502Y0001755230D02*
X0001422497Y0001755230D01*
X0001400000Y0001732733D02*
X0001400000Y0001777727D01*
X0000127502Y0001755230D02*
X0000172497Y0001755230D01*
X0000150000Y0001732733D02*
X0000150000Y0001777727D01*
D29*
X0000404299Y0001714348D02*
X0000404299Y0001454548D01*
X0000404299Y0001454548D02*
X0000695700Y0001454548D01*
X0000695700Y0001454548D02*
X0000695700Y0001714348D01*
X0000695700Y0001714348D02*
X0000404299Y0001714348D01*
D30*
X0001499999Y0001684448D02*
X0001499999Y0001284448D01*
X0001550000Y0001684448D02*
X0001250000Y0001684448D01*
X0001250000Y0001684448D02*
X0001250000Y0001284448D01*
X0001250000Y0001284448D02*
X0001550000Y0001284448D01*
X0001550000Y0001284448D02*
X0001550000Y0001684448D01*
D31*
X0001105000Y0001834448D02*
X0001195000Y0001834448D01*
X0001195000Y0001834448D02*
X0001195000Y0001784448D01*
X0001195000Y0001784448D02*
X0001105000Y0001784448D01*
X0001105000Y0001784448D02*
X0001105000Y0001834448D01*
X0001105000Y0001759448D02*
X0001195000Y0001759448D01*
X0001195000Y0001759448D02*
X0001195000Y0001709448D01*
X0001195000Y0001709448D02*
X0001105000Y0001709448D01*
X0001105000Y0001709448D02*
X0001105000Y0001759448D01*
D30*
X0000050000Y0001284448D02*
X0000050000Y0001684448D01*
X0000000000Y0001284448D02*
X0000300000Y0001284448D01*
X0000300000Y0001284448D02*
X0000300000Y0001684448D01*
X0000300000Y0001684448D02*
X0000000000Y0001684448D01*
X0000000000Y0001684448D02*
X0000000000Y0001284448D01*
D31*
X0000979999Y0001834448D02*
X0001069999Y0001834448D01*
X0001069999Y0001834448D02*
X0001069999Y0001784448D01*
X0001069999Y0001784448D02*
X0000979999Y0001784448D01*
X0000979999Y0001784448D02*
X0000979999Y0001834448D01*
X0000979999Y0001759448D02*
X0001069999Y0001759448D01*
X0001069999Y0001759448D02*
X0001069999Y0001709448D01*
X0001069999Y0001709448D02*
X0000979999Y0001709448D01*
X0000979999Y0001709448D02*
X0000979999Y0001759448D01*
X0001030000Y0001459448D02*
X0001120000Y0001459448D01*
X0001120000Y0001459448D02*
X0001120000Y0001409448D01*
X0001120000Y0001409448D02*
X0001030000Y0001409448D01*
X0001030000Y0001409448D02*
X0001030000Y0001459448D01*
X0001105000Y0001659448D02*
X0001195000Y0001659448D01*
X0001195000Y0001659448D02*
X0001195000Y0001609448D01*
X0001195000Y0001609448D02*
X0001105000Y0001609448D01*
X0001105000Y0001609448D02*
X0001105000Y0001659448D01*
D29*
X0001099999Y0001184448D02*
X0001124999Y0001184448D01*
X0001124999Y0001184448D02*
X0001124999Y0001234448D01*
X0001124999Y0001234448D02*
X0001099999Y0001234448D01*
X0001099999Y0001259448D02*
X0000399999Y0001259448D01*
X0000399999Y0001259448D02*
X0000399999Y0001159448D01*
X0000399999Y0001159448D02*
X0001099999Y0001159448D01*
X0001099999Y0001159448D02*
X0001099999Y0001259448D01*
D31*
X0001152500Y0001571948D02*
X0001178499Y0001571948D01*
X0001152500Y0001496948D02*
X0001178499Y0001496948D01*
X0001097499Y0001534448D02*
X0001071500Y0001534448D01*
X0001097499Y0001475448D02*
X0001097499Y0001593448D01*
X0001097499Y0001593448D02*
X0001152500Y0001593448D01*
X0001152500Y0001593448D02*
X0001152500Y0001475448D01*
X0001152500Y0001475448D02*
X0001097499Y0001475448D01*
X0001030000Y0001384448D02*
X0001120000Y0001384448D01*
X0001120000Y0001384448D02*
X0001120000Y0001334448D01*
X0001120000Y0001334448D02*
X0001030000Y0001334448D01*
X0001030000Y0001334448D02*
X0001030000Y0001384448D01*
X0000354999Y0001384448D02*
X0000444999Y0001384448D01*
X0000444999Y0001384448D02*
X0000444999Y0001334448D01*
X0000444999Y0001334448D02*
X0000354999Y0001334448D01*
X0000354999Y0001334448D02*
X0000354999Y0001384448D01*
D27*
X0000527502Y0001800618D02*
X0000527502Y0001776715D01*
X0000528908Y0001773903D01*
X0000530314Y0001772497D01*
X0000533127Y0001771091D01*
X0000538751Y0001771091D01*
X0000541563Y0001772497D01*
X0000542969Y0001773903D01*
X0000544375Y0001776715D01*
X0000544375Y0001800618D01*
X0000573903Y0001771091D02*
X0000557030Y0001771091D01*
X0000565466Y0001771091D02*
X0000565466Y0001800618D01*
X0000562654Y0001796400D01*
X0000559842Y0001793588D01*
X0000557030Y0001792182D01*
X0001378205Y0001696091D02*
X0001378205Y0001725618D01*
X0001389454Y0001725618D01*
X0001392266Y0001724212D01*
X0001393672Y0001722806D01*
X0001395078Y0001719994D01*
X0001395078Y0001715776D01*
X0001393672Y0001712964D01*
X0001392266Y0001711557D01*
X0001389454Y0001710151D01*
X0001378205Y0001710151D01*
X0001406327Y0001722806D02*
X0001407733Y0001724212D01*
X0001410545Y0001725618D01*
X0001417575Y0001725618D01*
X0001420388Y0001724212D01*
X0001421794Y0001722806D01*
X0001423200Y0001719994D01*
X0001423200Y0001717182D01*
X0001421794Y0001712964D01*
X0001404921Y0001696091D01*
X0001423200Y0001696091D01*
X0001203205Y0001796091D02*
X0001203205Y0001825618D01*
X0001210236Y0001825618D01*
X0001214454Y0001824212D01*
X0001217266Y0001821400D01*
X0001218672Y0001818588D01*
X0001220078Y0001812963D01*
X0001220078Y0001808745D01*
X0001218672Y0001803121D01*
X0001217266Y0001800309D01*
X0001214454Y0001797497D01*
X0001210236Y0001796091D01*
X0001203205Y0001796091D01*
X0001248200Y0001796091D02*
X0001231327Y0001796091D01*
X0001239763Y0001796091D02*
X0001239763Y0001825618D01*
X0001236951Y0001821400D01*
X0001234139Y0001818588D01*
X0001231327Y0001817182D01*
X0001203205Y0001721091D02*
X0001203205Y0001750618D01*
X0001210236Y0001750618D01*
X0001214454Y0001749212D01*
X0001217266Y0001746400D01*
X0001218672Y0001743588D01*
X0001220078Y0001737963D01*
X0001220078Y0001733745D01*
X0001218672Y0001728121D01*
X0001217266Y0001725309D01*
X0001214454Y0001722497D01*
X0001210236Y0001721091D01*
X0001203205Y0001721091D01*
X0001231327Y0001747806D02*
X0001232733Y0001749212D01*
X0001235545Y0001750618D01*
X0001242575Y0001750618D01*
X0001245388Y0001749212D01*
X0001246794Y0001747806D01*
X0001248200Y0001744994D01*
X0001248200Y0001742182D01*
X0001246794Y0001737963D01*
X0001229921Y0001721091D01*
X0001248200Y0001721091D01*
X0000128205Y0001696091D02*
X0000128205Y0001725618D01*
X0000139454Y0001725618D01*
X0000142266Y0001724212D01*
X0000143672Y0001722806D01*
X0000145078Y0001719994D01*
X0000145078Y0001715776D01*
X0000143672Y0001712964D01*
X0000142266Y0001711557D01*
X0000139454Y0001710151D01*
X0000128205Y0001710151D01*
X0000173200Y0001696091D02*
X0000156327Y0001696091D01*
X0000164763Y0001696091D02*
X0000164763Y0001725618D01*
X0000161951Y0001721400D01*
X0000159139Y0001718588D01*
X0000156327Y0001717182D01*
X0000945078Y0001796091D02*
X0000935236Y0001810151D01*
X0000928205Y0001796091D02*
X0000928205Y0001825618D01*
X0000939454Y0001825618D01*
X0000942266Y0001824212D01*
X0000943672Y0001822806D01*
X0000945078Y0001819994D01*
X0000945078Y0001815776D01*
X0000943672Y0001812963D01*
X0000942266Y0001811557D01*
X0000939454Y0001810151D01*
X0000928205Y0001810151D01*
X0000973200Y0001796091D02*
X0000956327Y0001796091D01*
X0000964763Y0001796091D02*
X0000964763Y0001825618D01*
X0000961951Y0001821400D01*
X0000959139Y0001818588D01*
X0000956327Y0001817182D01*
X0000945078Y0001721091D02*
X0000935236Y0001735151D01*
X0000928205Y0001721091D02*
X0000928205Y0001750618D01*
X0000939454Y0001750618D01*
X0000942266Y0001749212D01*
X0000943672Y0001747806D01*
X0000945078Y0001744994D01*
X0000945078Y0001740776D01*
X0000943672Y0001737963D01*
X0000942266Y0001736557D01*
X0000939454Y0001735151D01*
X0000928205Y0001735151D01*
X0000956327Y0001747806D02*
X0000957733Y0001749212D01*
X0000960545Y0001750618D01*
X0000967575Y0001750618D01*
X0000970388Y0001749212D01*
X0000971794Y0001747806D01*
X0000973200Y0001744994D01*
X0000973200Y0001742182D01*
X0000971794Y0001737963D01*
X0000954921Y0001721091D01*
X0000973200Y0001721091D01*
X0001170078Y0001421091D02*
X0001160236Y0001435151D01*
X0001153205Y0001421091D02*
X0001153205Y0001450618D01*
X0001164454Y0001450618D01*
X0001167266Y0001449212D01*
X0001168672Y0001447806D01*
X0001170078Y0001444994D01*
X0001170078Y0001440776D01*
X0001168672Y0001437964D01*
X0001167266Y0001436557D01*
X0001164454Y0001435151D01*
X0001153205Y0001435151D01*
X0001195388Y0001440776D02*
X0001195388Y0001421091D01*
X0001188357Y0001452024D02*
X0001181327Y0001430933D01*
X0001199606Y0001430933D01*
X0001070078Y0001621091D02*
X0001060236Y0001635151D01*
X0001053205Y0001621091D02*
X0001053205Y0001650618D01*
X0001064454Y0001650618D01*
X0001067266Y0001649212D01*
X0001068672Y0001647806D01*
X0001070078Y0001644994D01*
X0001070078Y0001640776D01*
X0001068672Y0001637964D01*
X0001067266Y0001636557D01*
X0001064454Y0001635151D01*
X0001053205Y0001635151D01*
X0001079921Y0001650618D02*
X0001098200Y0001650618D01*
X0001088357Y0001639370D01*
X0001092575Y0001639370D01*
X0001095388Y0001637964D01*
X0001096794Y0001636557D01*
X0001098200Y0001633745D01*
X0001098200Y0001626715D01*
X0001096794Y0001623903D01*
X0001095388Y0001622497D01*
X0001092575Y0001621091D01*
X0001084139Y0001621091D01*
X0001081327Y0001622497D01*
X0001079921Y0001623903D01*
X0000332424Y0001196091D02*
X0000322581Y0001210151D01*
X0000315551Y0001196091D02*
X0000315551Y0001225618D01*
X0000326799Y0001225618D01*
X0000329611Y0001224212D01*
X0000331018Y0001222806D01*
X0000332424Y0001219994D01*
X0000332424Y0001215776D01*
X0000331018Y0001212964D01*
X0000329611Y0001211557D01*
X0000326799Y0001210151D01*
X0000315551Y0001210151D01*
X0000340860Y0001225618D02*
X0000350703Y0001196091D01*
X0000360545Y0001225618D01*
X0000385854Y0001196091D02*
X0000368981Y0001196091D01*
X0000377418Y0001196091D02*
X0000377418Y0001225618D01*
X0000374606Y0001221400D01*
X0000371794Y0001218588D01*
X0000368981Y0001217182D01*
X0001022187Y0001518278D02*
X0001019375Y0001519685D01*
X0001016563Y0001522497D01*
X0001012345Y0001526715D01*
X0001009533Y0001528121D01*
X0001006721Y0001528121D01*
X0001008127Y0001521091D02*
X0001005314Y0001522497D01*
X0001002502Y0001525309D01*
X0001001096Y0001530933D01*
X0001001096Y0001540776D01*
X0001002502Y0001546400D01*
X0001005314Y0001549212D01*
X0001008127Y0001550618D01*
X0001013751Y0001550618D01*
X0001016563Y0001549212D01*
X0001019375Y0001546400D01*
X0001020781Y0001540776D01*
X0001020781Y0001530933D01*
X0001019375Y0001525309D01*
X0001016563Y0001522497D01*
X0001013751Y0001521091D01*
X0001008127Y0001521091D01*
X0001048903Y0001521091D02*
X0001032030Y0001521091D01*
X0001040466Y0001521091D02*
X0001040466Y0001550618D01*
X0001037654Y0001546400D01*
X0001034842Y0001543588D01*
X0001032030Y0001542182D01*
X0001170078Y0001348903D02*
X0001168672Y0001347497D01*
X0001164454Y0001346091D01*
X0001161642Y0001346091D01*
X0001157424Y0001347497D01*
X0001154611Y0001350309D01*
X0001153205Y0001353121D01*
X0001151799Y0001358745D01*
X0001151799Y0001362964D01*
X0001153205Y0001368588D01*
X0001154611Y0001371400D01*
X0001157424Y0001374212D01*
X0001161642Y0001375618D01*
X0001164454Y0001375618D01*
X0001168672Y0001374212D01*
X0001170078Y0001372806D01*
X0001198200Y0001346091D02*
X0001181327Y0001346091D01*
X0001189763Y0001346091D02*
X0001189763Y0001375618D01*
X0001186951Y0001371400D01*
X0001184139Y0001368588D01*
X0001181327Y0001367182D01*
X0000495078Y0001346091D02*
X0000485236Y0001360151D01*
X0000478205Y0001346091D02*
X0000478205Y0001375618D01*
X0000489454Y0001375618D01*
X0000492266Y0001374212D01*
X0000493672Y0001372806D01*
X0000495078Y0001369994D01*
X0000495078Y0001365776D01*
X0000493672Y0001362964D01*
X0000492266Y0001361557D01*
X0000489454Y0001360151D01*
X0000478205Y0001360151D01*
X0000521794Y0001375618D02*
X0000507733Y0001375618D01*
X0000506327Y0001361557D01*
X0000507733Y0001362964D01*
X0000510545Y0001364370D01*
X0000517575Y0001364370D01*
X0000520388Y0001362964D01*
X0000521794Y0001361557D01*
X0000523200Y0001358745D01*
X0000523200Y0001351715D01*
X0000521794Y0001348903D01*
X0000520388Y0001347497D01*
X0000517575Y0001346091D01*
X0000510545Y0001346091D01*
X0000507733Y0001347497D01*
X0000506327Y0001348903D01*
M02*